<?xml version="1.0" encoding="UTF-8"?>
<svg viewBox="0 0 1024 1024" version="1.1" xmlns="http://www.w3.org/2000/svg" xmlns:xlink="http://www.w3.org/1999/xlink">
	<defs>
		<linearGradient x1="50%" y1="0%" x2="50%" y2="100%" id="g1">
			<stop stop-color="#076180" offset="0%"></stop>
			<stop stop-color="#053D50" offset="100%"></stop>
		</linearGradient>
	</defs>
	<g id="v2" stroke="none" stroke-width="1" fill="none" fill-rule="evenodd">
		<rect id="b" fill="url(#g1)" x="0.374634146" y="0" width="1024" height="1024"></rect>
		<g id="favicon" transform="translate(160.000000, 150.000000)">
			<g id="s" transform="translate(0.000000, 54.000000)" fill-rule="nonzero">
				<path id="s4" d="M145.124979,351.998314 L281.816629,351.998314 C288.444,351.998431 293.816564,357.370943 293.816746,363.998314 L293.820034,699.998314 C293.820216,706.625731 288.447686,711.998367 281.820269,711.998431 C281.820229,711.998431 281.82019,711.998431 281.820151,711.998314 L145.128501,711.998314 C138.50113,711.998197 133.128566,706.625685 133.128383,699.998314 L133.125096,363.998314 C133.124914,357.370897 138.497444,351.998262 145.124861,351.998197 C145.1249,351.998197 145.124939,351.998197 145.124979,351.998314 Z" fill="#33AA44" transform="translate(213.472565, 531.998314) rotate(-80.000000) translate(-213.472565, -531.998314) "></path>
				<path id="s3" d="M127.867993,234.467449 L264.561153,234.467449 C271.188453,234.467746 276.560988,239.840148 276.56145,246.467449 L276.569774,582.467449 C276.570235,589.094866 271.197785,594.467582 264.570368,594.467746 C264.570269,594.467746 264.57017,594.467746 264.570071,594.467449 L127.876911,594.467449 C121.24961,594.467152 115.877075,589.09475 115.876614,582.467449 L115.86829,246.467449 C115.867829,239.840032 121.240278,234.467316 127.867695,234.467152 C127.867795,234.467152 127.867894,234.467152 127.867993,234.467449 Z" fill="#FF8800" transform="translate(196.219032, 414.467449) rotate(-60.000000) translate(-196.219032, -414.467449) "></path>
				<path id="s2" d="M153.252872,118.308422 L289.948344,118.308422 C296.575629,118.30876 301.948157,123.681137 301.948682,130.308422 L301.958147,466.308422 C301.958672,472.935839 296.586241,478.308574 289.958824,478.30876 C289.958711,478.30876 289.958598,478.30876 289.958485,478.308422 L153.263013,478.308422 C146.635728,478.308084 141.2632,472.935707 141.262675,466.308422 L141.25321,130.308422 C141.252685,123.681005 146.625117,118.308271 153.252534,118.308084 C153.252646,118.308084 153.252759,118.308084 153.252872,118.308422 Z" fill="#EE3344" transform="translate(221.605679, 298.308422) rotate(-40.000000) translate(-221.605679, -298.308422) "></path>
				<path id="s1" d="M215.513948,16.7350025 L352.211454,16.7350025 C358.838785,16.7352231 364.211332,22.1076717 364.211675,28.7350025 L364.217853,364.735002 C364.218196,371.362419 358.845711,376.735101 352.218294,376.735223 C352.218221,376.735223 352.218147,376.735223 352.218074,376.735002 L215.520568,376.735002 C208.893237,376.734782 203.52069,371.362333 203.520347,364.735002 L203.514169,28.7350025 C203.513827,22.1075855 208.886311,16.7349037 215.513728,16.7347819 C215.513801,16.7347819 215.513875,16.7347818 215.513948,16.7350025 Z" fill="#44AAFF" transform="translate(283.866011, 196.735002) rotate(-20.000000) translate(-283.866011, -196.735002) "></path>
			</g>
			<path id="f" fill="#EEEEEE" d="M277,0 L692,0 C698.627417,-2.99379359e-15 704,5.372583 704,12 L704,149.773081 C704,156.400498 698.627417,161.773081 692,161.773081 L431.923285,161.773081 C425.295868,161.773081 419.923285,167.145664 419.923285,173.773081 L419.923285,268.441245 C419.923285,275.068662 425.295868,280.441245 431.923285,280.441245 L683.651281,280.441245 C690.278698,280.441245 695.651281,285.813828 695.651281,292.441245 L695.651281,430.188719 C695.651281,436.816136 690.278698,442.188719 683.651281,442.188719 L431.923285,442.188719 C425.295868,442.188719 419.923285,447.561302 419.923285,454.188719 L419.923285,712 C419.923285,718.627417 414.550702,724 407.923285,724 L277,724 C270.372583,724 265,718.627417 265,712 L265,12 C265,5.372583 270.372583,1.21743675e-15 277,0 Z"></path>
		</g>
	</g>
</svg>
