<?xml version="1.0" encoding="UTF-8"?>
<svg width="1024px" height="1024px" viewBox="0 0 1024 1024" version="1.1" xmlns="http://www.w3.org/2000/svg" xmlns:xlink="http://www.w3.org/1999/xlink">
    <g id="logo" fill-rule="nonzero">
        <g id="fw" transform="translate(119.000000, 150.000000)">
            <g id="s0" transform="translate(0.000000, 54.000000)">
                <path d="M167.283153,333.405294 L303.974803,333.405294 C310.60218,333.405294 315.974746,338.778022 315.974908,345.405398 L315.978221,726.405398 C315.978221,733.032815 310.605847,738.405502 303.97843,738.405502 C303.978395,738.405502 303.97836,738.405502 303.978326,738.405502 L167.286675,738.405502 C160.659299,738.405502 155.286733,733.032774 155.286571,726.405398 L155.283257,345.405398 C155.283257,338.777981 160.655632,333.405294 167.283049,333.405294 C167.283083,333.405294 167.283118,333.405294 167.283153,333.405294 Z" id="s4" fill="#33AA44" transform="translate(235.630739, 535.905398) rotate(-80.000000) translate(-235.630739, -535.905398) "></path>
                <path d="M148.21959,222.717186 L284.91275,222.717186 C291.540064,222.717186 296.912604,228.090134 296.913013,234.717449 L296.921405,617.717449 C296.921405,624.344866 291.549348,629.717712 284.921931,629.717712 C284.921843,629.717712 284.921756,629.717712 284.921668,629.717712 L148.228508,629.717712 C141.601194,629.717712 136.228653,624.344763 136.228245,617.717449 L136.219853,234.717449 C136.219853,228.090032 141.59191,222.717186 148.219327,222.717186 C148.219414,222.717186 148.219502,222.717186 148.21959,222.717186 Z" id="s3" fill="#FF8800" transform="translate(216.570629, 426.217449) rotate(-60.000000) translate(-216.570629, -426.217449) "></path>
                <path d="M166.108624,113.629007 L302.804096,113.629007 C309.431394,113.629007 314.803928,119.002013 314.8044,125.629311 L314.813933,501.629311 C314.813933,508.256728 309.441959,513.629615 302.814542,513.629615 C302.814441,513.629615 302.814339,513.629615 302.814238,513.629615 L166.118765,513.629615 C159.491467,513.629615 154.118933,508.256609 154.118461,501.629311 L154.108928,125.629311 C154.108928,119.001894 159.480903,113.629007 166.10832,113.629007 C166.108421,113.629007 166.108523,113.629007 166.108624,113.629007 Z" id="s2" fill="#EE3344" transform="translate(234.461431, 313.629311) rotate(-40.000000) translate(-234.461431, -313.629311) "></path>
                <path d="M222.354351,15.5286563 L359.051857,15.5286563 C365.679197,15.5286563 371.051747,20.9015155 371.052056,27.5288549 L371.058278,403.528855 C371.058278,410.156272 365.686092,415.529053 359.058675,415.529053 C359.058609,415.529053 359.058543,415.529053 359.058477,415.529053 L222.360971,415.529053 C215.733631,415.529053 210.36108,410.156194 210.360772,403.528855 L210.35455,27.5288549 C210.35455,20.9014379 215.726736,15.5286563 222.354153,15.5286563 C222.354219,15.5286563 222.354285,15.5286563 222.354351,15.5286563 Z" id="s1" fill="#44AAFF" transform="translate(290.706414, 215.528855) rotate(-20.000000) translate(-290.706414, -215.528855) "></path>
            </g>
            <path d="M277,0 L773,0 C779.627417,0 785,5.372583 785,12 L785,149.773081 C785,156.400498 779.627417,161.773081 773,161.773081 L460.508219,161.773081 C453.880802,161.773081 448.508219,167.145664 448.508219,173.773081 L448.508219,268.441245 C448.508219,275.068662 453.880802,280.441245 460.508219,280.441245 L763.110856,280.441245 C769.738273,280.441245 775.110856,285.813828 775.110856,292.441245 L775.110856,430.188719 C775.110856,436.816136 769.738273,442.188719 763.110856,442.188719 L460.508219,442.188719 C453.880802,442.188719 448.508219,447.561302 448.508219,454.188719 L448.508219,712 C448.508219,718.627417 443.135636,724 436.508219,724 L277,724 C270.372583,724 265,718.627417 265,712 L265,12 C265,5.372583 270.372583,0 277,0 Z" id="f0" fill="#064F68"></path>
        </g>
    </g>
</svg>
